<svg width="346" height="181" viewBox="0 0 346 181" fill="none" xmlns="http://www.w3.org/2000/svg">
<g clip-path="url(#clip0_778_5830)">
<path d="M344.756 162.661H283.429V166.658H344.756V162.661Z" fill="#856359"/>
<path d="M88.8551 153.269C89.7883 153.269 90.6952 153.366 91.5628 153.556C92.4347 153.751 93.2102 154.069 93.8893 154.52C94.5684 154.971 95.1117 155.559 95.5148 156.289C95.9179 157.019 96.1194 157.921 96.1194 158.991C96.1194 160.233 95.7733 161.303 95.0854 162.192C94.3932 163.081 93.4117 163.678 92.1367 163.979V164.045C93.7316 164.173 94.9803 164.735 95.8828 165.734C96.7854 166.734 97.2367 168.069 97.2367 169.741C97.2367 170.108 97.1447 170.643 96.965 171.35C96.7854 172.058 96.4086 172.761 95.8346 173.459C95.2607 174.158 94.4326 174.764 93.346 175.277C92.2638 175.79 90.8179 176.051 89.0084 176.051H82.1208V153.269H88.8551ZM84.4254 163.245H89.0478C89.5999 163.245 90.1476 163.174 90.6909 163.037C91.2342 162.895 91.7205 162.665 92.1586 162.347C92.5924 162.024 92.9517 161.613 93.2277 161.109C93.5037 160.605 93.6439 159.99 93.6439 159.261C93.6439 159.026 93.5957 158.69 93.4993 158.261C93.4029 157.832 93.1927 157.403 92.8597 156.974C92.5311 156.545 92.0447 156.174 91.4094 155.865C90.7697 155.555 89.911 155.396 88.8288 155.396H84.4298V163.245H84.4254ZM88.8244 173.928C89.6525 173.928 90.428 173.844 91.1509 173.672C91.8738 173.499 92.5004 173.238 93.0305 172.885C93.5607 172.531 93.9813 172.084 94.288 171.549C94.5947 171.014 94.748 170.368 94.748 169.617C94.748 168.118 94.2705 166.999 93.3153 166.269C92.3602 165.54 90.9581 165.177 89.1092 165.177H84.4211V173.928H88.8244Z" fill="#856359"/>
<path d="M113.917 173.928H126.001V176.051H111.621V153.273H125.615V155.396H113.917V163.152H124.853V165.274H113.917V173.928Z" fill="#856359"/>
<path d="M142.225 176.051H139.929V153.273H146.878C149.174 153.273 150.983 153.777 152.315 154.786C153.643 155.794 154.309 157.315 154.309 159.353C154.309 160.941 153.814 162.276 152.828 163.36C151.838 164.443 150.409 165.071 148.539 165.243L155.041 176.055H152.237L146.05 165.469H142.225V176.051ZM142.225 163.342H146.304C147.325 163.342 148.188 163.236 148.902 163.019C149.612 162.807 150.182 162.52 150.607 162.166C151.032 161.812 151.338 161.392 151.531 160.91C151.724 160.428 151.82 159.906 151.82 159.349C151.82 158.814 151.724 158.305 151.531 157.819C151.338 157.337 151.032 156.913 150.607 156.55C150.182 156.187 149.612 155.9 148.902 155.696C148.188 155.493 147.325 155.391 146.304 155.391H142.225V163.342Z" fill="#856359"/>
<path d="M170.533 173.928H181.053V176.051H168.237V153.273H170.533V173.928Z" fill="#856359"/>
<path d="M195.875 176.051H193.58V153.273H195.875V176.051Z" fill="#856359"/>
<path d="M227.724 172.575H227.79V153.269H230.085V176.046H227.216L213.76 156.55H213.695V176.046H211.399V153.269H214.269L227.724 172.575Z" fill="#856359"/>
<path d="M62.5666 162.661H1.23998V166.658H62.5666V162.661Z" fill="#856359"/>
<path d="M156.39 129.43C155.312 129.43 154.291 129.191 153.52 128.758L153.455 128.718C152.109 127.847 151.382 126.45 151.238 124.447L146.273 64.7018V64.6532C146.269 63.7865 146.317 63.5477 146.335 63.4593C146.847 60.8503 149.481 59.6652 151.711 59.6652C154.213 59.6652 156.123 61.0007 156.565 63.0613C156.701 63.7025 156.758 64.5205 156.776 64.7858L157.832 79.3827C163.282 75.3056 179.647 63.2603 184.361 60.1517C185.141 59.6387 186.03 59.3646 186.937 59.3646C187.165 59.3646 187.397 59.3822 187.621 59.4176C193.571 60.3462 200.923 66.1257 203.552 68.7789C220.657 86.0421 216.665 120.118 216.153 123.947C215.916 125.725 215.009 127.259 213.664 128.161L213.651 128.17C213.077 128.568 211.955 129.209 210.606 129.209C207.118 129.209 204.485 126.883 204.485 123.797C204.485 106.914 202.158 93.0686 197.575 82.6372C193.65 73.7137 189.181 69.9728 187.441 68.7789C187.288 68.6727 187.108 68.6197 186.92 68.6197C186.692 68.6197 186.473 68.6993 186.298 68.8496L161.946 90.013C160.408 91.3131 159.545 93.2764 159.628 95.2795L160.877 125.198C160.934 126.525 160.342 127.803 159.299 128.617C158.375 129.324 157.078 129.43 156.39 129.43Z" fill="#856359"/>
<path d="M147.513 64.6443L152.473 124.354C152.587 125.955 153.108 127.011 154.121 127.661C155.365 128.36 157.591 128.347 158.537 127.613C159.264 127.051 159.672 126.167 159.632 125.243L158.384 95.3282C158.283 92.9182 159.299 90.6011 161.131 89.0579L185.496 67.8856C186.249 67.2533 187.327 67.187 188.138 67.7397C192.878 70.9898 205.729 84.1672 205.729 123.792C205.729 126.268 207.951 127.953 210.606 127.953C211.57 127.953 212.45 127.489 212.972 127.117C214.028 126.41 214.729 125.19 214.917 123.779C215.916 116.284 218.4 85.5468 202.667 69.6677C199.862 66.8376 192.791 61.4959 187.424 60.6602C186.591 60.5319 185.737 60.7354 185.031 61.2041C180.212 64.3835 162.914 77.1231 157.937 80.864C157.42 81.2531 156.688 80.9082 156.64 80.2626L155.54 64.9318C155.531 64.7991 155.483 63.9368 155.352 63.3266C154.607 59.8775 148.232 60.2401 147.553 63.7025C147.522 63.8528 147.513 64.2862 147.513 64.6443Z" fill="#856359"/>
<path d="M78.7866 141.374C75.9912 141.374 73.6735 139.079 73.6165 136.258L72.5124 80.5368C72.4861 79.1218 73.0075 77.7863 73.9889 76.7781C74.9704 75.7699 76.2804 75.2128 77.6824 75.2128H116.9C117.045 75.2128 117.128 75.1332 117.176 75.0668C117.22 75.0005 117.264 74.8944 117.216 74.7573C115.696 70.6272 112.068 62.7252 104.838 56.2294C99.48 51.4183 94.7656 49.3975 85.5515 46.4215C83.5886 45.7803 82.2785 44.7721 81.7659 43.4986C81.4987 42.8398 81.3234 41.7829 81.9894 40.5006C82.4056 39.7002 83.3038 38.745 85.2053 38.745C86.7432 38.745 88.5878 39.342 90.8836 40.2397C91.072 40.306 91.4313 40.4121 91.9089 40.558C117.001 48.1063 127.539 63.7157 131.964 75.4825L131.986 75.54C134.027 81.9076 140.113 105.145 132.752 136.718C132.209 139.052 130.163 140.702 127.784 140.733L78.7866 141.374ZM84.1494 86.9C83.8164 86.9 83.5053 87.0326 83.2687 87.2758C83.0365 87.519 82.9095 87.8374 82.9226 88.1779L84.0486 127.852C84.0662 128.506 84.5656 129.023 85.2097 129.063L122.373 131.225H122.439C122.75 131.225 123.039 131.097 123.253 130.858C123.464 130.624 123.565 130.319 123.534 130.005L119.499 90.8974C119.442 90.2916 118.968 89.8229 118.373 89.7742L84.2546 86.9044C84.2195 86.8999 84.1845 86.9 84.1494 86.9Z" fill="#856359"/>
<path d="M130.803 75.9247C120.533 48.6015 93.4993 42.4993 90.4367 41.4071C87.0718 40.0893 84.0837 39.1828 83.0935 41.0798C82.0682 43.0432 83.6193 44.4715 85.9326 45.2232C95.0942 48.1815 100.067 50.2598 105.667 55.2875C113.233 62.084 116.962 70.4548 118.386 74.3151C118.767 75.3543 118.005 76.4553 116.909 76.4553H77.6824C75.4786 76.4553 73.7085 78.2816 73.7523 80.5014L74.8564 136.222C74.9003 138.402 76.6791 140.14 78.8391 140.109L127.766 139.472C129.567 139.45 131.131 138.194 131.543 136.421C137.922 109.063 134.26 86.7142 130.803 75.9247ZM82.8043 127.891L81.6783 88.2133C81.6389 86.7231 82.8876 85.5336 84.3597 85.6574L118.473 88.5272C119.665 88.6289 120.616 89.5708 120.73 90.7736L124.765 129.89C124.905 131.336 123.735 132.565 122.298 132.481L85.1352 130.319C83.8515 130.239 82.8394 129.187 82.8043 127.891Z" fill="#856359"/>
<path d="M5.29711 133.738C3.87315 133.738 2.53682 133.177 1.53786 132.155C0.534519 131.134 -0.0131572 129.772 -1.29202e-05 128.33C0.0569454 122.427 1.09534 110.81 7.42648 99.3311C15.1684 85.3003 28.2557 75.7843 46.3159 71.0528C46.846 70.9113 47.236 70.4293 47.2535 69.8721L49.6896 4.16212C49.7728 1.90693 51.6831 0.00549316 53.8563 0.00549316C56.2441 0.0231809 58.1632 1.97768 58.1632 4.35668V129.701C58.1632 131.93 56.3668 133.743 54.1586 133.743H5.29711V133.738ZM44.2917 81.3294C44.2391 81.3294 44.1865 81.3338 44.1339 81.3471C40.2695 82.2757 32.7861 84.7298 26.0913 90.7348C17.8411 98.1283 13.3721 108.511 12.8069 121.596C12.7893 122.042 12.9427 122.467 13.2406 122.794C13.5385 123.121 13.9416 123.307 14.3798 123.325L39.6211 123.391C40.1731 123.391 40.6332 122.975 40.6945 122.422L44.9445 82.0678C44.9708 81.8246 44.87 81.6522 44.7824 81.5549C44.6509 81.409 44.4757 81.3294 44.2917 81.3294Z" fill="#856359"/>
<path d="M53.8826 1.25143C52.3185 1.23817 50.9953 2.62666 50.9339 4.20529L48.4979 69.9153C48.4584 71.0296 47.6961 71.9848 46.6314 72.2633C5.38918 83.0661 1.3539 116.571 1.24436 128.342C1.22246 130.624 3.04074 132.481 5.29717 132.481H54.1587C55.6834 132.481 56.9233 131.234 56.9233 129.691V4.35121C56.9233 2.64877 55.5651 1.26912 53.8826 1.25143ZM41.9258 122.55C41.7987 123.739 40.8041 124.646 39.6168 124.641L14.336 124.575C12.7368 124.517 11.4969 123.151 11.567 121.541C12.9252 90.2208 35.9889 82.0226 43.8492 80.13C45.1242 79.8249 46.3159 80.8817 46.1801 82.1994L41.9258 122.55Z" fill="#856359"/>
<path d="M243.238 180.822C242.305 180.822 241.42 180.459 240.745 179.8L240.522 179.584C239.361 178.447 239.098 176.661 239.882 175.233C240.487 174.136 241.582 173.446 242.813 173.38C250.306 172.986 260.133 169.4 264.396 154.551C266.017 148.909 268.729 139.464 266.797 120.498C266.784 120.48 266.762 120.462 266.74 120.445C265.5 120.418 262.749 120.321 259.296 120.202C252.163 119.95 242.393 119.609 237.402 119.587C234.651 119.574 232.386 117.482 232.132 114.723L228.293 73.1831C227.982 69.8224 229.836 66.6873 232.898 65.3828C234.66 64.6355 241.14 62.1902 250.621 62.1902C258.67 62.1902 266.136 63.9678 272.8 67.4744C274.303 68.2659 275.288 69.8313 275.367 71.5603L278.268 132.384C278.29 132.778 278.78 142.395 275.867 153.03C271.959 167.295 263.73 176.396 252.071 179.345C249.031 180.247 246.178 180.729 243.348 180.822H243.238ZM252.93 69.7649C248.404 69.7649 244.816 70.7024 242.275 72.5463C241.53 73.0858 241.113 74.01 241.188 74.9607L243.747 108.169C243.856 109.589 245.048 110.699 246.459 110.699L263.77 111.141C264.506 111.141 265.216 110.827 265.737 110.257C266.258 109.686 266.508 108.948 266.447 108.174L266.442 108.108L265.395 73.1477C265.294 72.3695 263.222 71.0827 261.465 70.7112C259.406 70.2823 256.256 69.7649 252.93 69.7649Z" fill="#856359"/>
<path d="M277.037 132.442L274.136 71.6177C274.075 70.3398 273.356 69.1768 272.235 68.5843C256.79 60.4568 240.031 63.7069 233.389 66.5325C230.83 67.6203 229.279 70.2691 229.538 73.0593L233.376 114.599C233.569 116.708 235.317 118.318 237.416 118.327C244.956 118.362 263.481 119.127 266.916 119.189C267.275 119.193 267.972 119.662 268.037 120.321C269.956 139.07 267.411 148.59 265.601 154.896C260.335 173.238 246.963 174.415 242.888 174.627C242.086 174.671 241.368 175.131 240.978 175.838C240.465 176.771 240.636 177.939 241.394 178.682L241.617 178.898C242.073 179.345 242.686 179.584 243.322 179.566C245.819 179.482 248.557 179.084 251.76 178.133C279.179 171.213 277.037 132.442 277.037 132.442ZM242.511 108.271L239.952 75.0624C239.847 73.6872 240.443 72.3385 241.552 71.5337C247.589 67.1516 257.329 68.5666 261.724 69.4952C263.432 69.8578 266.499 71.3171 266.64 73.077L267.687 108.081C267.875 110.411 266.052 112.406 263.739 112.406L246.459 111.964C244.391 111.955 242.669 110.35 242.511 108.271Z" fill="#856359"/>
<path d="M314.222 118.906C305.525 118.906 299.237 116.178 296.043 111.022L296.017 110.982L295.995 110.938C289.055 97.5524 285.388 79.617 285.388 59.0639C285.388 49.6363 286.549 32.7445 286.93 27.1949L287.004 26.1381C287.066 25.2228 287.473 23.8962 288.214 23.1489L288.45 22.9101C289.23 22.1274 290.26 21.6985 291.351 21.6985C292.775 21.6985 294.058 22.4281 294.786 23.6486L294.825 23.7149L294.856 23.7901C295.237 24.6568 295.399 25.7843 295.364 26.4476C295.32 27.3099 295.198 28.5834 295.04 30.1974C293.958 41.4336 291.079 71.2773 301.84 97.1102C303.461 101.002 306.637 104.628 311.286 107.886C312.241 108.554 314.612 110.044 315.619 110.628C316.141 110.929 316.951 111.734 317.236 112.127L317.538 112.538C318.739 114.174 318.529 116.456 317.048 117.84C316.325 118.517 315.291 118.906 314.222 118.906Z" fill="#856359"/>
<path d="M294.12 26.3857C293.76 33.1823 288.288 67.8237 300.687 97.5966C302.563 102.098 306.23 105.87 310.568 108.917C311.588 109.633 314.003 111.141 314.997 111.716C315.326 111.906 316.009 112.565 316.233 112.87L316.535 113.281C317.359 114.404 317.214 115.97 316.198 116.921C315.707 117.38 314.966 117.655 314.217 117.655C310.979 117.655 301.415 117.341 297.09 110.358C290.943 98.4987 286.628 81.461 286.628 59.0639C286.628 48.9244 287.995 29.8437 288.24 26.2221C288.288 25.5323 288.604 24.5241 289.09 24.0377L289.326 23.7989C290.619 22.4988 292.779 22.7199 293.721 24.2986C294.032 25.0105 294.146 25.9391 294.12 26.3857Z" fill="#856359"/>
<path d="M327.362 104.623C326.577 104.623 325.806 104.415 325.127 104.017C323.747 103.212 322.888 101.718 322.888 100.108V69.933C322.888 67.5053 324.847 65.5287 327.252 65.5287C329.618 65.5287 331.533 67.3992 331.611 69.7871L332.549 98.2378C332.58 99.1532 332.466 100.011 332.216 100.789C331.848 101.921 331.252 102.766 330.284 103.522C329.478 104.23 328.439 104.623 327.362 104.623Z" fill="#856359"/>
<path d="M327.252 66.7846C328.934 66.7846 330.315 68.1332 330.372 69.8313L331.309 98.282C331.331 98.9984 331.257 99.7192 331.037 100.4C330.731 101.342 330.266 101.961 329.5 102.554C328.461 103.482 326.95 103.637 325.745 102.934C324.746 102.35 324.128 101.276 324.128 100.113V69.9374C324.132 68.1952 325.53 66.7846 327.252 66.7846Z" fill="#856359"/>
<path d="M341.693 47.4253L316.285 45.0375C315.006 44.9888 313.854 44.3609 313.118 43.3173C312.381 42.2738 312.176 40.9781 312.557 39.7577L319.3 19.6909C319.834 18.099 320.978 16.8565 322.432 16.2772C322.998 16.0517 323.554 15.9367 324.084 15.9367C325.683 15.9367 326.993 16.9139 327.975 18.8463C328.194 19.2797 328.339 19.7174 328.457 20.1198C331.016 28.6896 337.561 34.5928 344.62 40.3812C345.882 41.4159 346.316 43.0343 345.763 44.613C345.172 46.2977 343.599 47.4342 341.855 47.4342C341.851 47.4253 341.693 47.4253 341.693 47.4253ZM330.131 39.8859L323.909 32.1696L322.034 38.8423L330.131 39.8859Z" fill="#856359"/>
<path d="M343.836 41.3496C336.987 35.7381 329.977 29.5695 327.265 20.478C327.156 20.1154 327.037 19.7528 326.866 19.4168C325.894 17.5065 324.623 16.7503 322.884 17.4401C321.727 17.9 320.868 18.9038 320.47 20.0933L313.735 40.1335C313.179 41.9156 314.485 43.733 316.36 43.7861L341.763 46.1739C344.339 46.2447 345.82 42.9724 343.836 41.3496ZM320.61 39.3022L323.09 30.4981C323.208 30.0825 323.738 29.9719 324.01 30.308L332.22 40.4917C332.523 40.8632 332.216 41.4203 331.743 41.3584L321.052 39.9788C320.732 39.9346 320.522 39.6162 320.61 39.3022Z" fill="#856359"/>
</g>
<defs>
<clipPath id="clip0_778_5830">
<rect width="346" height="180.822" fill="white"/>
</clipPath>
</defs>
</svg>
